{"glyphs":{"0":{"ha":856,"x_min":88,"x_max":768,"o":"m 768 407 q 742 238 768 315 q 672 105 717 161 q 564 17 626 49 q 428 -14 501 -14 q 292 17 354 -14 q 184 105 229 49 q 113 238 139 161 q 88 407 88 315 q 113 576 88 499 q 184 709 139 653 q 292 797 229 765 q 428 829 354 829 q 564 797 501 829 q 672 709 626 765 q 742 576 717 653 q 768 407 768 499 m 740 407 q 717 567 740 494 q 653 691 694 639 q 555 772 613 743 q 428 801 497 801 q 301 772 358 801 q 202 691 243 743 q 138 567 161 639 q 115 407 115 494 q 138 247 115 319 q 202 123 161 175 q 301 42 243 71 q 428 14 358 14 q 555 42 497 14 q 653 123 613 71 q 717 247 694 175 q 740 407 740 319 z "},"1":{"ha":529,"x_min":65,"x_max":499,"o":"m 499 28 l 499 0 l 97 0 l 97 28 l 294 28 l 294 747 q 256 710 283 731 q 197 672 229 690 q 128 640 164 653 q 65 628 93 628 l 65 661 q 143 681 103 661 q 217 725 183 701 q 272 769 250 749 q 294 793 293 790 l 322 793 l 322 28 l 499 28 z "},"2":{"ha":704,"x_min":82,"x_max":624,"o":"m 82 0 q 88 72 82 25 q 117 173 93 119 q 188 278 140 226 q 319 365 236 331 q 403 400 358 382 q 488 444 449 418 q 554 509 528 471 q 581 601 581 547 q 567 665 581 633 q 525 722 553 697 q 455 763 497 747 q 356 779 413 779 q 261 763 303 779 q 190 725 219 746 q 142 685 160 704 q 118 658 124 665 l 96 675 q 114 696 96 675 q 165 742 132 717 q 247 787 199 767 q 356 807 294 807 q 465 789 418 807 q 544 742 513 771 q 592 676 576 713 q 608 601 608 639 q 580 496 608 539 q 508 424 551 453 q 417 375 465 394 q 329 339 368 356 q 214 262 257 307 q 147 171 171 217 q 116 85 124 125 q 108 28 108 46 l 624 28 l 624 0 l 82 0 z "},"3":{"ha":721,"x_min":65,"x_max":649,"o":"m 429 328 q 589 242 529 314 q 649 67 649 171 q 627 -44 649 6 q 566 -129 606 -93 q 472 -185 526 -165 q 354 -204 418 -204 q 172 -156 250 -204 q 65 -26 94 -108 l 92 -17 q 128 -82 104 -53 q 188 -132 153 -111 q 265 -165 222 -153 q 357 -176 308 -176 q 465 -159 417 -176 q 549 -109 514 -142 q 602 -31 583 -76 q 621 71 621 14 q 549 249 621 183 q 350 315 476 315 l 319 315 l 319 343 l 351 343 q 539 395 474 343 q 604 542 604 447 q 585 635 604 593 q 533 708 567 678 q 454 756 500 739 q 354 772 408 772 q 200 729 267 772 q 106 615 133 686 l 81 625 q 121 697 94 664 q 183 752 147 729 q 263 788 219 775 q 354 800 306 800 q 465 781 414 800 q 553 728 515 763 q 611 649 590 694 q 632 549 632 603 q 577 399 632 460 q 429 328 522 339 z "},"4":{"ha":731,"x_min":29,"x_max":686,"o":"m 536 -176 l 536 100 l 29 100 l 29 124 l 544 793 l 564 793 l 564 128 l 686 128 l 686 100 l 564 100 l 564 -176 l 536 -176 m 68 128 l 536 128 l 536 742 l 68 128 z "},"5":{"ha":761,"x_min":63,"x_max":700,"o":"m 381 425 q 504 402 446 425 q 606 338 563 379 q 675 240 650 297 q 700 114 700 182 q 674 -17 700 42 q 602 -119 647 -76 q 498 -184 557 -161 q 374 -207 439 -207 q 274 -192 321 -207 q 186 -151 226 -178 q 115 -87 146 -124 q 63 -4 83 -50 l 93 -4 q 206 -131 131 -83 q 374 -179 281 -179 q 490 -158 436 -179 q 585 -97 544 -136 q 649 -5 625 -58 q 672 114 672 49 q 649 228 672 176 q 587 318 626 281 q 494 376 547 356 q 381 397 442 397 q 231 363 301 397 q 114 261 160 328 l 81 261 q 90 303 83 274 q 104 372 96 332 q 122 458 113 411 q 140 551 131 504 q 189 793 163 661 l 657 793 l 657 765 l 213 765 l 122 314 q 240 397 172 368 q 381 425 307 425 z "},"6":{"ha":840,"x_min":85,"x_max":774,"o":"m 774 322 q 747 192 774 253 q 674 85 721 131 q 565 13 628 39 q 432 -14 503 -14 q 295 13 358 -14 q 185 89 232 39 q 111 210 138 139 q 85 369 85 281 q 110 649 85 532 q 183 843 136 767 q 293 956 229 919 q 435 993 357 993 q 613 938 536 993 q 721 789 690 883 l 694 779 q 656 855 682 821 q 597 914 631 889 q 522 952 563 939 q 436 965 481 965 q 305 929 364 965 q 203 824 246 893 q 138 656 161 756 q 115 428 115 556 q 163 522 132 479 q 238 596 194 565 q 331 643 281 626 q 438 660 382 660 q 568 633 507 660 q 675 561 629 607 q 747 453 721 515 q 774 322 774 392 m 435 14 q 556 38 499 14 q 655 104 613 63 q 722 202 697 146 q 746 321 746 258 q 721 441 746 385 q 653 540 696 497 q 553 607 610 582 q 433 632 497 632 q 313 607 369 632 q 213 540 256 582 q 146 441 171 497 q 121 322 121 385 q 146 203 121 260 q 214 105 171 147 q 314 38 257 63 q 435 14 371 14 z "},"7":{"ha":739,"x_min":72,"x_max":711,"o":"m 665 782 l 72 782 l 72 810 l 711 810 l 206 -176 l 174 -176 l 665 782 z "},"8":{"ha":819,"x_min":79,"x_max":739,"o":"m 739 261 q 712 149 739 199 q 638 63 685 99 q 531 9 592 28 q 404 -10 471 -10 q 269 13 329 -10 q 167 74 210 36 q 102 160 125 111 q 79 264 79 210 q 99 359 79 315 q 151 437 118 403 q 224 494 183 471 q 307 529 265 518 q 233 564 268 543 q 172 613 199 585 q 131 675 146 640 q 115 751 115 710 q 141 852 115 808 q 208 926 167 896 q 303 971 250 956 q 410 986 356 986 q 517 971 464 986 q 610 926 569 956 q 677 852 651 896 q 703 751 703 808 q 687 675 703 710 q 644 613 671 640 q 583 564 618 585 q 510 529 549 543 q 600 490 558 515 q 673 431 642 465 q 722 353 704 396 q 739 261 739 311 m 711 265 q 683 372 711 325 q 611 450 656 418 q 513 499 567 482 q 407 515 458 515 q 299 497 353 515 q 203 446 246 479 q 133 366 160 413 q 107 263 107 319 q 135 157 107 203 q 207 79 163 111 q 305 31 251 47 q 411 14 358 14 q 519 31 465 14 q 615 81 572 49 q 684 160 657 114 q 711 265 711 207 m 143 749 q 167 660 143 699 q 231 597 192 622 q 316 557 269 571 q 408 543 363 543 q 501 557 454 543 q 588 598 549 571 q 651 663 626 625 q 675 751 675 701 q 652 840 675 801 q 592 904 629 878 q 506 944 554 931 q 407 958 457 958 q 309 944 357 958 q 224 903 261 931 q 165 838 188 876 q 143 749 143 799 z "},"9":{"ha":818,"x_min":58,"x_max":747,"o":"m 58 457 q 85 588 58 526 q 158 694 111 649 q 267 767 204 740 q 400 793 329 793 q 537 767 474 793 q 647 690 600 740 q 721 569 694 640 q 747 410 747 499 q 722 130 747 247 q 649 -64 696 13 q 538 -177 603 -140 q 397 -214 474 -214 q 219 -159 296 -214 q 111 -10 142 -104 l 138 0 q 176 -76 150 -42 q 235 -135 201 -110 q 310 -173 269 -160 q 396 -186 351 -186 q 527 -150 468 -186 q 628 -45 586 -114 q 694 124 671 24 q 717 351 717 224 q 669 257 700 300 q 594 183 638 214 q 501 136 551 153 q 394 119 450 119 q 264 146 325 119 q 157 218 203 172 q 85 326 111 264 q 58 457 58 388 m 397 765 q 276 741 333 765 q 177 675 219 717 q 110 577 135 633 q 86 458 86 521 q 111 338 86 394 q 178 240 136 282 q 278 172 221 197 q 399 147 335 147 q 519 172 463 147 q 619 240 576 197 q 686 338 661 282 q 711 457 711 394 q 686 576 711 519 q 618 674 661 632 q 518 741 575 717 q 397 765 461 765 z "},"A":{"ha":949,"x_min":32,"x_max":917,"o":"m 32 0 l 463 986 l 488 986 l 917 0 l 886 0 l 732 353 l 217 353 l 63 0 l 32 0 m 475 946 l 228 381 l 719 381 l 475 946 z "},"Æ":{"ha":1388,"x_min":11,"x_max":1315,"o":"m 661 986 l 1303 986 l 1303 958 l 696 958 l 696 518 l 1228 518 l 1228 490 l 696 490 l 696 28 l 1315 28 l 1315 0 l 668 0 l 668 353 l 278 353 l 46 0 l 11 0 l 661 986 m 668 381 l 668 942 l 294 381 l 668 381 z "},"Ǽ":{"ha":1388,"x_min":11,"x_max":1315,"o":"m 661 986 l 1303 986 l 1303 958 l 696 958 l 696 518 l 1228 518 l 1228 490 l 696 490 l 696 28 l 1315 28 l 1315 0 l 668 0 l 668 353 l 278 353 l 46 0 l 11 0 l 661 986 m 668 381 l 668 942 l 294 381 l 668 381 m 676 1157 l 654 1174 l 743 1275 l 790 1275 l 676 1157 z "},"´":{"ha":275,"x_min":69,"x_max":206,"o":"m 92 896 l 69 913 l 158 1014 l 206 1014 l 92 896 z "},"Á":{"ha":949,"x_min":32,"x_max":917,"o":"m 32 0 l 463 986 l 488 986 l 917 0 l 886 0 l 732 353 l 217 353 l 63 0 l 32 0 m 475 946 l 228 381 l 719 381 l 475 946 m 456 1157 l 433 1174 l 522 1275 l 569 1275 l 456 1157 z "},"Ă":{"ha":949,"x_min":32,"x_max":917,"o":"m 32 0 l 463 986 l 488 986 l 917 0 l 886 0 l 732 353 l 217 353 l 63 0 l 32 0 m 475 946 l 228 381 l 719 381 l 475 946 m 475 1192 q 526 1216 503 1192 q 553 1275 549 1240 l 578 1275 q 569 1235 578 1254 q 547 1201 561 1215 q 514 1177 532 1186 q 475 1168 496 1168 q 436 1177 454 1168 q 403 1201 418 1186 q 381 1235 389 1215 q 372 1275 372 1254 l 399 1275 q 422 1217 399 1243 q 475 1192 446 1192 z "},"˘":{"ha":344,"x_min":69,"x_max":275,"o":"m 172 931 q 223 955 200 931 q 250 1014 246 979 l 275 1014 q 267 974 275 993 q 244 940 258 954 q 211 916 229 925 q 172 907 193 907 q 133 916 151 907 q 101 940 115 925 q 78 974 86 954 q 69 1014 69 993 l 96 1014 q 119 956 96 982 q 172 931 143 931 z "},"Â":{"ha":949,"x_min":32,"x_max":917,"o":"m 32 0 l 463 986 l 488 986 l 917 0 l 886 0 l 732 353 l 217 353 l 63 0 l 32 0 m 475 946 l 228 381 l 719 381 l 475 946 m 335 1172 l 464 1275 l 486 1275 l 615 1172 l 593 1156 l 475 1243 l 357 1156 l 335 1172 z "},"ˆ":{"ha":419,"x_min":69,"x_max":350,"o":"m 69 911 l 199 1014 l 221 1014 l 350 911 l 328 894 l 210 982 l 92 894 l 69 911 z "},"Ä":{"ha":949,"x_min":32,"x_max":917,"o":"m 32 0 l 463 986 l 488 986 l 917 0 l 886 0 l 732 353 l 217 353 l 63 0 l 32 0 m 475 946 l 228 381 l 719 381 l 475 946 m 381 1168 l 381 1275 l 408 1275 l 408 1168 l 381 1168 m 542 1168 l 542 1275 l 569 1275 l 569 1168 l 542 1168 z "},"¨":{"ha":328,"x_min":69,"x_max":258,"o":"m 69 907 l 69 1014 l 97 1014 l 97 907 l 69 907 m 231 907 l 231 1014 l 258 1014 l 258 907 l 231 907 z "},"À":{"ha":949,"x_min":32,"x_max":917,"o":"m 32 0 l 463 986 l 488 986 l 917 0 l 886 0 l 732 353 l 217 353 l 63 0 l 32 0 m 475 946 l 228 381 l 719 381 l 475 946 m 381 1275 l 426 1275 l 517 1174 l 494 1157 l 381 1275 z "},"`":{"ha":275,"x_min":69,"x_max":206,"o":"m 69 1014 l 115 1014 l 206 913 l 183 896 l 69 1014 z "},"Ā":{"ha":949,"x_min":32,"x_max":917,"o":"m 32 0 l 463 986 l 488 986 l 917 0 l 886 0 l 732 353 l 217 353 l 63 0 l 32 0 m 475 946 l 228 381 l 719 381 l 475 946 m 281 1214 l 281 1242 l 669 1242 l 669 1214 l 281 1214 z "},"¯":{"ha":528,"x_min":69,"x_max":458,"o":"m 69 953 l 69 981 l 458 981 l 458 953 l 69 953 z "},"Ą":{"ha":949,"x_min":32,"x_max":917,"o":"m 849 -217 q 795 -186 814 -208 q 776 -132 776 -164 q 801 -65 776 -97 q 882 10 825 -32 l 732 353 l 217 353 l 63 0 l 32 0 l 463 986 l 488 986 l 913 8 l 917 4 q 915 3 915 4 l 917 0 l 910 0 q 828 -69 851 -40 q 804 -128 804 -97 q 865 -193 804 -181 l 849 -217 m 475 946 l 228 381 l 719 381 l 475 946 z "},"˛":{"ha":282,"x_min":67,"x_max":207,"o":"m 139 -221 q 85 -190 104 -212 q 67 -136 67 -168 q 95 -65 67 -100 q 190 19 124 -29 l 207 0 q 119 -72 144 -43 q 94 -132 94 -100 q 156 -197 94 -185 l 139 -221 l 139 -221 z "},"Å":{"ha":949,"x_min":32,"x_max":917,"o":"m 32 0 l 463 986 l 488 986 l 917 0 l 886 0 l 732 353 l 217 353 l 63 0 l 32 0 m 475 946 l 228 381 l 719 381 l 475 946 m 396 1196 q 419 1252 396 1229 q 475 1275 442 1275 q 531 1252 508 1275 q 554 1196 554 1229 q 531 1140 554 1163 q 475 1117 508 1117 q 419 1140 442 1117 q 396 1196 396 1163 m 475 1253 q 435 1238 451 1253 q 418 1196 418 1222 q 435 1156 418 1172 q 475 1139 451 1139 q 514 1155 496 1139 q 532 1196 532 1171 q 515 1238 532 1222 q 475 1253 499 1253 z "},"˚":{"ha":331,"x_min":86,"x_max":244,"o":"m 86 935 q 109 991 86 968 q 165 1014 132 1014 q 222 991 199 1014 q 244 935 244 968 q 222 878 244 901 q 165 856 199 856 q 109 878 132 856 q 86 935 86 901 m 165 992 q 125 976 142 992 q 108 935 108 961 q 125 894 108 911 q 165 878 142 878 q 204 894 186 878 q 222 935 222 910 q 206 976 222 961 q 165 992 189 992 z "},"Ǻ":{"ha":949,"x_min":32,"x_max":917,"o":"m 396 1043 q 419 1099 396 1076 q 475 1122 442 1122 q 531 1099 508 1122 q 554 1043 554 1076 q 538 994 554 1015 q 494 965 521 972 l 917 0 l 886 0 l 732 353 l 217 353 l 63 0 l 32 0 l 454 965 q 412 994 428 972 q 396 1043 396 1015 m 475 946 l 228 381 l 719 381 l 475 946 m 475 1100 q 435 1085 451 1100 q 418 1043 418 1069 q 435 1003 418 1019 q 475 986 451 986 q 514 1002 496 986 q 532 1043 532 1018 q 515 1085 532 1069 q 475 1100 499 1100 m 456 1157 l 433 1174 l 522 1275 l 569 1275 l 456 1157 z "},"Ã":{"ha":949,"x_min":32,"x_max":917,"o":"m 32 0 l 463 986 l 488 986 l 917 0 l 886 0 l 732 353 l 217 353 l 63 0 l 32 0 m 475 946 l 228 381 l 719 381 l 475 946 m 560 1182 q 506 1190 529 1182 q 464 1208 483 1199 q 426 1226 444 1218 q 386 1235 407 1235 q 350 1226 364 1235 q 328 1205 336 1217 q 318 1182 321 1193 q 315 1168 315 1171 l 288 1168 q 290 1186 288 1171 q 303 1218 293 1201 q 334 1248 314 1235 q 389 1261 354 1261 q 436 1253 415 1261 q 476 1235 457 1244 q 516 1217 496 1225 q 563 1208 536 1208 q 608 1218 592 1208 q 632 1240 624 1228 q 642 1262 640 1251 q 644 1275 644 1272 l 672 1275 q 669 1256 672 1271 q 654 1224 665 1240 q 620 1194 643 1207 q 560 1182 597 1182 z "},"˜":{"ha":532,"x_min":74,"x_max":458,"o":"m 346 921 q 292 929 315 921 q 250 947 269 938 q 212 965 231 957 q 172 974 193 974 q 136 965 150 974 q 115 944 122 956 q 104 921 107 932 q 101 907 101 910 l 74 907 q 76 925 74 910 q 90 957 79 940 q 120 987 100 974 q 175 1000 140 1000 q 222 992 201 1000 q 263 974 243 983 q 302 956 282 964 q 349 947 322 947 q 394 957 378 947 q 418 978 410 967 q 428 1001 426 990 q 431 1014 431 1011 l 458 1014 q 455 994 458 1010 q 440 963 451 979 q 406 933 429 946 q 346 921 383 921 z "},"B":{"ha":917,"x_min":140,"x_max":843,"o":"m 843 256 q 824 158 843 204 q 771 77 804 113 q 692 21 738 42 q 597 0 647 0 l 140 0 l 140 986 l 576 986 q 669 964 628 986 q 740 906 711 942 q 785 826 769 871 q 801 735 801 781 q 763 597 801 660 q 660 506 725 535 q 735 468 701 493 q 794 410 769 443 q 831 337 818 376 q 843 256 843 297 m 815 256 q 799 341 815 300 q 756 414 783 382 q 690 465 728 446 q 607 483 651 483 l 168 483 l 168 28 l 597 28 q 683 47 643 28 q 752 99 722 67 q 799 172 782 131 q 815 256 815 213 m 168 958 l 168 511 l 568 511 q 651 531 614 511 q 716 582 689 550 q 758 653 743 614 q 774 735 774 693 q 759 819 774 779 q 719 891 744 860 q 656 940 693 922 q 576 958 619 958 l 168 958 z "},"C":{"ha":975,"x_min":72,"x_max":921,"o":"m 72 500 q 103 676 72 589 q 194 834 135 764 q 340 948 253 904 q 538 992 426 992 q 761 931 669 992 q 897 776 853 871 l 871 768 q 803 860 842 822 q 720 920 765 897 q 627 953 675 943 q 532 964 579 964 q 349 923 429 964 q 213 815 268 882 q 128 665 157 749 q 100 496 100 581 q 134 315 100 401 q 227 163 168 229 q 365 58 286 97 q 536 19 444 19 q 636 32 585 19 q 735 69 688 44 q 824 134 783 94 q 894 228 865 174 l 921 221 q 853 122 896 165 q 757 50 810 79 q 645 6 704 21 q 531 -8 586 -8 q 346 36 431 -8 q 201 152 261 81 q 106 315 140 224 q 72 500 72 406 z "},"\r":{"ha":0,"x_min":0,"x_max":0,"o":""},"Ć":{"ha":975,"x_min":72,"x_max":921,"o":"m 72 500 q 103 676 72 589 q 194 834 135 764 q 340 948 253 904 q 538 992 426 992 q 761 931 669 992 q 897 776 853 871 l 871 768 q 803 860 842 822 q 720 920 765 897 q 627 953 675 943 q 532 964 579 964 q 349 923 429 964 q 213 815 268 882 q 128 665 157 749 q 100 496 100 581 q 134 315 100 401 q 227 163 168 229 q 365 58 286 97 q 536 19 444 19 q 636 32 585 19 q 735 69 688 44 q 824 134 783 94 q 894 228 865 174 l 921 221 q 853 122 896 165 q 757 50 810 79 q 645 6 704 21 q 531 -8 586 -8 q 346 36 431 -8 q 201 152 261 81 q 106 315 140 224 q 72 500 72 406 m 515 1157 l 493 1174 l 582 1275 l 629 1275 l 515 1157 z "},"Č":{"ha":975,"x_min":72,"x_max":921,"o":"m 72 500 q 103 676 72 589 q 194 834 135 764 q 340 948 253 904 q 538 992 426 992 q 761 931 669 992 q 897 776 853 871 l 871 768 q 803 860 842 822 q 720 920 765 897 q 627 953 675 943 q 532 964 579 964 q 349 923 429 964 q 213 815 268 882 q 128 665 157 749 q 100 496 100 581 q 134 315 100 401 q 227 163 168 229 q 365 58 286 97 q 536 19 444 19 q 636 32 585 19 q 735 69 688 44 q 824 134 783 94 q 894 228 865 174 l 921 221 q 853 122 896 165 q 757 50 810 79 q 645 6 704 21 q 531 -8 586 -8 q 346 36 431 -8 q 201 152 261 81 q 106 315 140 224 q 72 500 72 406 m 417 1275 l 535 1188 l 653 1275 l 675 1258 l 546 1156 l 524 1156 l 394 1258 l 417 1275 z "},"ˇ":{"ha":419,"x_min":69,"x_max":350,"o":"m 92 1014 l 210 926 l 328 1014 l 350 997 l 221 894 l 199 894 l 69 997 l 92 1014 z "},"Ç":{"ha":976,"x_min":74,"x_max":922,"o":"m 429 -174 q 482 -191 450 -183 q 550 -199 514 -199 q 631 -146 631 -199 q 612 -105 631 -117 q 564 -93 593 -93 q 503 -101 535 -93 q 451 -115 471 -108 l 513 -7 q 335 42 415 -3 q 196 159 254 88 q 106 319 138 231 q 74 500 74 408 q 105 676 74 589 q 195 834 136 764 q 341 948 254 904 q 539 992 428 992 q 763 931 671 992 q 899 776 854 871 l 872 768 q 805 860 843 822 q 722 920 767 897 q 628 953 676 943 q 533 964 581 964 q 350 923 431 964 q 214 815 269 882 q 130 665 158 749 q 101 496 101 581 q 135 315 101 401 q 228 163 169 229 q 367 58 288 97 q 538 19 446 19 q 638 32 586 19 q 737 69 689 44 q 826 134 785 94 q 896 228 867 174 l 922 221 q 856 125 897 167 q 765 54 815 83 q 658 9 714 25 q 546 -8 601 -7 l 506 -79 q 536 -72 519 -74 q 564 -71 553 -71 q 658 -146 658 -71 q 628 -206 658 -187 q 546 -225 599 -225 q 476 -217 510 -225 q 415 -199 442 -210 l 429 -174 z "},"¸":{"ha":350,"x_min":32,"x_max":275,"o":"m 46 -174 q 99 -191 67 -183 q 167 -199 131 -199 q 247 -146 247 -199 q 228 -105 247 -117 q 181 -93 210 -93 q 119 -101 151 -93 q 68 -115 88 -108 l 143 15 l 168 0 l 122 -79 q 153 -72 136 -74 q 181 -71 169 -71 q 275 -146 275 -71 q 245 -206 275 -187 q 163 -225 215 -225 q 92 -217 126 -225 q 32 -199 58 -210 l 46 -174 z "},"Ĉ":{"ha":975,"x_min":72,"x_max":921,"o":"m 72 500 q 103 676 72 589 q 194 834 135 764 q 340 948 253 904 q 538 992 426 992 q 761 931 669 992 q 897 776 853 871 l 871 768 q 803 860 842 822 q 720 920 765 897 q 627 953 675 943 q 532 964 579 964 q 349 923 429 964 q 213 815 268 882 q 128 665 157 749 q 100 496 100 581 q 134 315 100 401 q 227 163 168 229 q 365 58 286 97 q 536 19 444 19 q 636 32 585 19 q 735 69 688 44 q 824 134 783 94 q 894 228 865 174 l 921 221 q 853 122 896 165 q 757 50 810 79 q 645 6 704 21 q 531 -8 586 -8 q 346 36 431 -8 q 201 152 261 81 q 106 315 140 224 q 72 500 72 406 m 394 1172 l 524 1275 l 546 1275 l 675 1172 l 653 1156 l 535 1243 l 417 1156 l 394 1172 z "},"Ċ":{"ha":975,"x_min":72,"x_max":921,"o":"m 72 500 q 103 676 72 589 q 194 834 135 764 q 340 948 253 904 q 538 992 426 992 q 761 931 669 992 q 897 776 853 871 l 871 768 q 803 860 842 822 q 720 920 765 897 q 627 953 675 943 q 532 964 579 964 q 349 923 429 964 q 213 815 268 882 q 128 665 157 749 q 100 496 100 581 q 134 315 100 401 q 227 163 168 229 q 365 58 286 97 q 536 19 444 19 q 636 32 585 19 q 735 69 688 44 q 824 134 783 94 q 894 228 865 174 l 921 221 q 853 122 896 165 q 757 50 810 79 q 645 6 704 21 q 531 -8 586 -8 q 346 36 431 -8 q 201 152 261 81 q 106 315 140 224 q 72 500 72 406 m 521 1168 l 521 1275 l 549 1275 l 549 1168 l 521 1168 z "},"˙":{"ha":167,"x_min":69,"x_max":97,"o":"m 69 907 l 69 1014 l 97 1014 l 97 907 l 69 907 z "},"D":{"ha":997,"x_min":140,"x_max":919,"o":"m 140 0 l 140 986 l 457 986 q 660 947 574 986 q 805 842 747 908 q 891 685 863 775 q 919 494 919 596 q 887 291 919 382 q 794 135 854 200 q 649 35 735 71 q 457 0 563 0 l 140 0 m 892 494 q 863 681 892 596 q 779 827 835 765 q 642 924 724 889 q 457 958 561 958 l 168 958 l 168 28 l 457 28 q 645 63 564 28 q 781 161 726 99 q 864 309 836 224 q 892 494 892 394 z "},"Ď":{"ha":997,"x_min":140,"x_max":919,"o":"m 140 0 l 140 986 l 457 986 q 660 947 574 986 q 805 842 747 908 q 891 685 863 775 q 919 494 919 596 q 887 291 919 382 q 794 135 854 200 q 649 35 735 71 q 457 0 563 0 l 140 0 m 892 494 q 863 681 892 596 q 779 827 835 765 q 642 924 724 889 q 457 958 561 958 l 168 958 l 168 28 l 457 28 q 645 63 564 28 q 781 161 726 99 q 864 309 836 224 q 892 494 892 394 m 375 1275 l 493 1188 l 611 1275 l 633 1258 l 504 1156 l 482 1156 l 353 1258 l 375 1275 z "},"Đ":{"ha":1006,"x_min":50,"x_max":928,"o":"m 149 0 l 149 482 l 50 482 l 50 510 l 149 510 l 149 986 l 465 986 q 669 947 582 986 q 813 842 756 908 q 899 685 871 775 q 928 494 928 596 q 895 291 928 382 q 803 135 863 200 q 657 35 743 71 q 465 0 571 0 l 149 0 m 900 494 q 872 681 900 596 q 788 827 843 765 q 651 924 732 889 q 465 958 569 958 l 176 958 l 176 510 l 443 510 l 443 482 l 176 482 l 176 28 l 465 28 q 653 63 572 28 q 790 161 735 99 q 872 309 844 224 q 900 494 900 394 z "},"E":{"ha":860,"x_min":140,"x_max":788,"o":"m 788 28 l 788 0 l 140 0 l 140 986 l 775 986 l 775 958 l 168 958 l 168 518 l 700 518 l 700 490 l 168 490 l 168 28 l 788 28 z "},"É":{"ha":860,"x_min":140,"x_max":788,"o":"m 788 28 l 788 0 l 140 0 l 140 986 l 775 986 l 775 958 l 168 958 l 168 518 l 700 518 l 700 490 l 168 490 l 168 28 l 788 28 m 461 1157 l 439 1174 l 528 1275 l 575 1275 l 461 1157 z "},"Ĕ":{"ha":860,"x_min":140,"x_max":788,"o":"m 788 28 l 788 0 l 140 0 l 140 986 l 775 986 l 775 958 l 168 958 l 168 518 l 700 518 l 700 490 l 168 490 l 168 28 l 788 28 m 481 1192 q 531 1216 508 1192 q 558 1275 554 1240 l 583 1275 q 575 1235 583 1254 q 552 1201 567 1215 q 519 1177 538 1186 q 481 1168 501 1168 q 442 1177 460 1168 q 409 1201 424 1186 q 386 1235 394 1215 q 378 1275 378 1254 l 404 1275 q 428 1217 404 1243 q 481 1192 451 1192 z "},"Ě":{"ha":860,"x_min":140,"x_max":788,"o":"m 788 28 l 788 0 l 140 0 l 140 986 l 775 986 l 775 958 l 168 958 l 168 518 l 700 518 l 700 490 l 168 490 l 168 28 l 788 28 m 363 1275 l 481 1188 l 599 1275 l 621 1258 l 492 1156 l 469 1156 l 340 1258 l 363 1275 z "},"Ê":{"ha":860,"x_min":140,"x_max":788,"o":"m 788 28 l 788 0 l 140 0 l 140 986 l 775 986 l 775 958 l 168 958 l 168 518 l 700 518 l 700 490 l 168 490 l 168 28 l 788 28 m 340 1172 l 469 1275 l 492 1275 l 621 1172 l 599 1156 l 481 1243 l 363 1156 l 340 1172 z "},"Ë":{"ha":860,"x_min":140,"x_max":788,"o":"m 788 28 l 788 0 l 140 0 l 140 986 l 775 986 l 775 958 l 168 958 l 168 518 l 700 518 l 700 490 l 168 490 l 168 28 l 788 28 m 386 1168 l 386 1275 l 414 1275 l 414 1168 l 386 1168 m 547 1168 l 547 1275 l 575 1275 l 575 1168 l 547 1168 z "},"Ė":{"ha":860,"x_min":140,"x_max":788,"o":"m 788 28 l 788 0 l 140 0 l 140 986 l 775 986 l 775 958 l 168 958 l 168 518 l 700 518 l 700 490 l 168 490 l 168 28 l 788 28 m 467 1168 l 467 1275 l 494 1275 l 494 1168 l 467 1168 z "},"È":{"ha":860,"x_min":140,"x_max":788,"o":"m 788 28 l 788 0 l 140 0 l 140 986 l 775 986 l 775 958 l 168 958 l 168 518 l 700 518 l 700 490 l 168 490 l 168 28 l 788 28 m 386 1275 l 432 1275 l 522 1174 l 500 1157 l 386 1275 z "},"Ē":{"ha":860,"x_min":140,"x_max":788,"o":"m 788 28 l 788 0 l 140 0 l 140 986 l 775 986 l 775 958 l 168 958 l 168 518 l 700 518 l 700 490 l 168 490 l 168 28 l 788 28 m 286 1214 l 286 1242 l 675 1242 l 675 1214 l 286 1214 z "},"Ŋ":{"ha":1083,"x_min":140,"x_max":943,"o":"m 168 932 l 168 0 l 140 0 l 140 986 l 161 986 l 915 40 l 915 985 l 943 985 l 943 -50 q 926 -124 943 -90 q 883 -183 910 -158 q 824 -222 857 -208 q 758 -236 790 -236 q 683 -226 718 -236 q 619 -189 647 -217 l 642 -172 q 697 -201 667 -194 q 757 -208 728 -208 q 814 -196 786 -208 q 865 -162 842 -183 q 901 -112 888 -142 q 915 -50 915 -83 l 915 -6 l 168 932 z "},"Ę":{"ha":860,"x_min":140,"x_max":788,"o":"m 429 -221 q 376 -190 394 -212 q 357 -136 357 -168 q 379 -72 357 -103 q 454 0 401 -40 l 140 0 l 140 986 l 775 986 l 775 958 l 168 958 l 168 518 l 700 518 l 700 490 l 168 490 l 168 28 l 788 28 l 788 0 l 497 0 q 410 -72 435 -43 q 385 -132 385 -100 q 446 -197 385 -185 l 429 -221 l 429 -221 z "},"Ð":{"ha":1006,"x_min":50,"x_max":928,"o":"m 149 0 l 149 482 l 50 482 l 50 510 l 149 510 l 149 986 l 465 986 q 669 947 582 986 q 813 842 756 908 q 899 685 871 775 q 928 494 928 596 q 895 291 928 382 q 803 135 863 200 q 657 35 743 71 q 465 0 571 0 l 149 0 m 900 494 q 872 681 900 596 q 788 827 843 765 q 651 924 732 889 q 465 958 569 958 l 176 958 l 176 510 l 443 510 l 443 482 l 176 482 l 176 28 l 465 28 q 653 63 572 28 q 790 161 735 99 q 872 309 844 224 q 900 494 900 394 z "},"Ẽ":{"ha":860,"x_min":140,"x_max":788,"o":"m 788 28 l 788 0 l 140 0 l 140 986 l 775 986 l 775 958 l 168 958 l 168 518 l 700 518 l 700 490 l 168 490 l 168 28 l 788 28 m 565 1182 q 512 1190 535 1182 q 469 1208 489 1199 q 431 1226 450 1218 q 392 1235 413 1235 q 356 1226 369 1235 q 334 1205 342 1217 q 324 1182 326 1193 q 321 1168 321 1171 l 293 1168 q 296 1186 293 1171 q 309 1218 299 1201 q 340 1248 319 1235 q 394 1261 360 1261 q 442 1253 421 1261 q 482 1235 463 1244 q 522 1217 501 1225 q 568 1208 542 1208 q 613 1218 597 1208 q 638 1240 629 1228 q 648 1262 646 1251 q 650 1275 650 1272 l 678 1275 q 674 1256 678 1271 q 660 1224 671 1240 q 626 1194 649 1207 q 565 1182 603 1182 z "},"€":{"ha":1138,"x_min":47,"x_max":1057,"o":"m 211 557 q 256 717 221 639 q 349 856 290 794 q 490 954 408 917 q 674 992 571 992 q 897 931 806 992 q 1033 776 989 871 l 1007 768 q 940 860 978 822 q 856 920 901 897 q 763 953 811 943 q 668 964 715 964 q 499 929 574 964 q 369 838 424 894 q 283 708 315 781 q 240 557 250 635 l 788 557 l 774 529 l 238 529 q 236 513 236 521 q 236 496 236 504 q 240 432 236 463 l 732 432 l 718 404 l 244 404 q 299 255 260 325 q 394 133 338 185 q 521 50 450 81 q 672 19 592 19 q 772 32 721 19 q 872 69 824 44 q 960 134 919 94 q 1031 228 1001 174 l 1057 221 q 989 122 1032 165 q 893 50 946 79 q 781 6 840 21 q 667 -8 722 -8 q 503 26 579 -8 q 369 117 428 60 q 272 248 311 174 q 218 404 233 322 l 47 404 l 61 432 l 213 432 q 209 469 210 449 q 208 529 208 489 l 103 529 l 117 557 l 211 557 z "},"F":{"ha":828,"x_min":140,"x_max":775,"o":"m 140 0 l 140 986 l 775 986 l 775 958 l 168 958 l 168 519 l 686 519 l 686 492 l 168 492 l 168 0 l 140 0 z "},"G":{"ha":1014,"x_min":74,"x_max":922,"o":"m 894 168 q 539 -7 740 -7 q 351 37 436 -7 q 203 151 265 81 q 108 312 142 222 q 74 493 74 401 q 107 679 74 589 q 199 840 140 769 q 341 951 258 910 q 522 993 424 993 q 658 977 599 993 q 764 933 718 961 q 842 865 810 904 q 899 778 875 825 l 872 769 q 726 919 815 874 q 522 965 638 965 q 347 924 425 965 q 215 817 269 883 q 131 665 160 750 q 101 493 101 581 q 135 315 101 400 q 229 164 169 229 q 368 60 289 99 q 539 21 447 21 q 724 65 636 21 q 894 207 811 110 l 894 442 l 663 442 l 663 469 l 922 469 l 922 0 l 894 0 l 894 168 z "},"Ğ":{"ha":1014,"x_min":74,"x_max":922,"o":"m 894 168 q 539 -7 740 -7 q 351 37 436 -7 q 203 151 265 81 q 108 312 142 222 q 74 493 74 401 q 107 679 74 589 q 199 840 140 769 q 341 951 258 910 q 522 993 424 993 q 658 977 599 993 q 764 933 718 961 q 842 865 810 904 q 899 778 875 825 l 872 769 q 726 919 815 874 q 522 965 638 965 q 347 924 425 965 q 215 817 269 883 q 131 665 160 750 q 101 493 101 581 q 135 315 101 400 q 229 164 169 229 q 368 60 289 99 q 539 21 447 21 q 724 65 636 21 q 894 207 811 110 l 894 442 l 663 442 l 663 469 l 922 469 l 922 0 l 894 0 l 894 168 m 521 1192 q 572 1216 549 1192 q 599 1275 594 1240 l 624 1275 q 615 1235 624 1254 q 592 1201 607 1215 q 560 1177 578 1186 q 521 1168 542 1168 q 482 1177 500 1168 q 449 1201 464 1186 q 426 1235 435 1215 q 418 1275 418 1254 l 444 1275 q 468 1217 444 1243 q 521 1192 492 1192 z "},"Ĝ":{"ha":1014,"x_min":74,"x_max":922,"o":"m 894 168 q 539 -7 740 -7 q 351 37 436 -7 q 203 151 265 81 q 108 312 142 222 q 74 493 74 401 q 107 679 74 589 q 199 840 140 769 q 341 951 258 910 q 522 993 424 993 q 658 977 599 993 q 764 933 718 961 q 842 865 810 904 q 899 778 875 825 l 872 769 q 726 919 815 874 q 522 965 638 965 q 347 924 425 965 q 215 817 269 883 q 131 665 160 750 q 101 493 101 581 q 135 315 101 400 q 229 164 169 229 q 368 60 289 99 q 539 21 447 21 q 724 65 636 21 q 894 207 811 110 l 894 442 l 663 442 l 663 469 l 922 469 l 922 0 l 894 0 l 894 168 m 381 1172 l 510 1275 l 532 1275 l 661 1172 l 639 1156 l 521 1243 l 403 1156 l 381 1172 z "},"Ģ":{"ha":1014,"x_min":74,"x_max":922,"o":"m 894 168 q 539 -7 740 -7 q 351 37 436 -7 q 203 151 265 81 q 108 312 142 222 q 74 493 74 401 q 107 679 74 589 q 199 840 140 769 q 341 951 258 910 q 522 993 424 993 q 658 977 599 993 q 764 933 718 961 q 842 865 810 904 q 899 778 875 825 l 872 769 q 726 919 815 874 q 522 965 638 965 q 347 924 425 965 q 215 817 269 883 q 131 665 160 750 q 101 493 101 581 q 135 315 101 400 q 229 164 169 229 q 368 60 289 99 q 539 21 447 21 q 724 65 636 21 q 894 207 811 110 l 894 442 l 663 442 l 663 469 l 922 469 l 922 0 l 894 0 l 894 168 m 506 -176 q 524 -158 524 -176 l 524 -69 l 551 -69 l 551 -156 q 506 -204 551 -204 l 506 -176 z "},"":{"ha":167,"x_min":65,"x_max":111,"o":"m 65 -176 q 83 -158 83 -176 l 83 -69 l 111 -69 l 111 -156 q 65 -204 111 -204 l 65 -176 z "},"Ġ":{"ha":1014,"x_min":74,"x_max":922,"o":"m 894 168 q 539 -7 740 -7 q 351 37 436 -7 q 203 151 265 81 q 108 312 142 222 q 74 493 74 401 q 107 679 74 589 q 199 840 140 769 q 341 951 258 910 q 522 993 424 993 q 658 977 599 993 q 764 933 718 961 q 842 865 810 904 q 899 778 875 825 l 872 769 q 726 919 815 874 q 522 965 638 965 q 347 924 425 965 q 215 817 269 883 q 131 665 160 750 q 101 493 101 581 q 135 315 101 400 q 229 164 169 229 q 368 60 289 99 q 539 21 447 21 q 724 65 636 21 q 894 207 811 110 l 894 442 l 663 442 l 663 469 l 922 469 l 922 0 l 894 0 l 894 168 m 507 1168 l 507 1275 l 535 1275 l 535 1168 l 507 1168 z "},"H":{"ha":1021,"x_min":140,"x_max":881,"o":"m 881 986 l 881 0 l 853 0 l 853 490 l 168 490 l 168 0 l 140 0 l 140 986 l 168 986 l 168 518 l 853 518 l 853 986 l 881 986 z "},"Ħ":{"ha":1032,"x_min":76,"x_max":956,"o":"m 886 986 l 886 797 l 956 797 l 956 769 l 886 769 l 886 0 l 858 0 l 858 490 l 174 490 l 174 0 l 146 0 l 146 769 l 76 769 l 76 797 l 146 797 l 146 986 l 174 986 l 174 797 l 858 797 l 858 986 l 886 986 m 858 518 l 858 769 l 174 769 l 174 518 l 858 518 z "},"Ĥ":{"ha":1021,"x_min":140,"x_max":881,"o":"m 881 986 l 881 0 l 853 0 l 853 490 l 168 490 l 168 0 l 140 0 l 140 986 l 168 986 l 168 518 l 853 518 l 853 986 l 881 986 m 372 1172 l 501 1275 l 524 1275 l 653 1172 l 631 1156 l 513 1243 l 394 1156 l 372 1172 z "},"I":{"ha":308,"x_min":140,"x_max":168,"o":"m 140 0 l 140 985 l 168 985 l 168 0 l 140 0 z "},"Ĳ":{"ha":975,"x_min":140,"x_max":846,"o":"m 140 0 l 140 985 l 168 985 l 168 0 l 140 0 m 356 68 q 554 13 436 13 q 695 45 643 13 q 774 138 747 78 q 810 286 801 199 q 818 485 818 374 l 818 985 l 846 985 l 846 485 q 837 280 846 372 q 797 122 828 188 q 709 21 767 57 q 554 -15 651 -15 q 340 46 429 -15 l 356 68 z "},"J":{"ha":667,"x_min":32,"x_max":538,"o":"m 47 68 q 246 13 128 13 q 387 45 335 13 q 466 138 439 78 q 501 286 493 199 q 510 485 510 374 l 510 985 l 538 985 l 538 485 q 528 280 538 372 q 489 122 519 188 q 401 21 458 57 q 246 -15 343 -15 q 32 46 121 -15 l 47 68 z "},"Í":{"ha":308,"x_min":113,"x_max":249,"o":"m 140 0 l 140 985 l 168 985 l 168 0 l 140 0 m 135 1157 l 113 1174 l 201 1275 l 249 1275 l 135 1157 z "},"Ĭ":{"ha":308,"x_min":51,"x_max":257,"o":"m 140 0 l 140 985 l 168 985 l 168 0 l 140 0 m 154 1192 q 205 1216 182 1192 q 232 1275 228 1240 l 257 1275 q 249 1235 257 1254 q 226 1201 240 1215 q 193 1177 211 1186 q 154 1168 175 1168 q 115 1177 133 1168 q 83 1201 97 1186 q 60 1235 68 1215 q 51 1275 51 1254 l 78 1275 q 101 1217 78 1243 q 154 1192 125 1192 z "},"Î":{"ha":308,"x_min":14,"x_max":294,"o":"m 140 0 l 140 985 l 168 985 l 168 0 l 140 0 m 14 1172 l 143 1275 l 165 1275 l 294 1172 l 272 1156 l 154 1243 l 36 1156 l 14 1172 z "},"Ï":{"ha":308,"x_min":60,"x_max":249,"o":"m 140 0 l 140 985 l 168 985 l 168 0 l 140 0 m 60 1168 l 60 1275 l 88 1275 l 88 1168 l 60 1168 m 221 1168 l 221 1275 l 249 1275 l 249 1168 l 221 1168 z "},"İ":{"ha":308,"x_min":140,"x_max":168,"o":"m 140 0 l 140 985 l 168 985 l 168 0 l 140 0 m 140 1168 l 140 1275 l 168 1275 l 168 1168 l 140 1168 z "},"Ì":{"ha":308,"x_min":60,"x_max":196,"o":"m 140 0 l 140 985 l 168 985 l 168 0 l 140 0 m 60 1275 l 106 1275 l 196 1174 l 174 1157 l 60 1275 z "},"Ī":{"ha":308,"x_min":-40,"x_max":349,"o":"m 140 0 l 140 985 l 168 985 l 168 0 l 140 0 m -40 1214 l -40 1242 l 349 1242 l 349 1214 l -40 1214 z "},"Į":{"ha":308,"x_min":28,"x_max":168,"o":"m 100 -221 q 47 -190 65 -212 q 28 -136 28 -168 q 53 -67 28 -100 q 140 11 79 -33 l 140 985 l 168 985 l 168 0 q 81 -72 106 -43 q 56 -132 56 -100 q 117 -197 56 -185 l 100 -221 l 100 -221 z "},"Ĩ":{"ha":308,"x_min":-33,"x_max":351,"o":"m 140 0 l 140 985 l 168 985 l 168 0 l 140 0 m 239 1182 q 185 1190 208 1182 q 143 1208 163 1199 q 105 1226 124 1218 q 65 1235 86 1235 q 29 1226 43 1235 q 8 1205 15 1217 q -3 1182 0 1193 q -6 1168 -6 1171 l -33 1168 q -31 1186 -33 1171 q -17 1218 -28 1201 q 13 1248 -7 1235 q 68 1261 33 1261 q 115 1253 94 1261 q 156 1235 136 1244 q 195 1217 175 1225 q 242 1208 215 1208 q 287 1218 271 1208 q 311 1240 303 1228 q 322 1262 319 1251 q 324 1275 324 1272 l 351 1275 q 348 1256 351 1271 q 333 1224 344 1240 q 299 1194 322 1207 q 239 1182 276 1182 z "},"Ĵ":{"ha":667,"x_min":32,"x_max":664,"o":"m 47 68 q 246 13 128 13 q 387 45 335 13 q 466 138 439 78 q 501 286 493 199 q 510 485 510 374 l 510 985 l 538 985 l 538 485 q 528 280 538 372 q 489 122 519 188 q 401 21 458 57 q 246 -15 343 -15 q 32 46 121 -15 l 47 68 m 383 1172 l 513 1275 l 535 1275 l 664 1172 l 642 1156 l 524 1243 l 406 1156 l 383 1172 z "},"K":{"ha":865,"x_min":140,"x_max":856,"o":"m 140 0 l 140 985 l 168 985 l 168 346 l 796 986 l 836 986 l 415 556 l 856 0 l 819 0 l 394 536 l 168 307 l 168 0 l 140 0 z "},"Ķ":{"ha":865,"x_min":140,"x_max":856,"o":"m 140 0 l 140 985 l 168 985 l 168 346 l 796 986 l 836 986 l 415 556 l 856 0 l 819 0 l 394 536 l 168 307 l 168 0 l 140 0 m 407 -176 q 425 -158 425 -176 l 425 -69 l 453 -69 l 453 -156 q 407 -204 453 -204 l 407 -176 z "},"L":{"ha":821,"x_min":140,"x_max":788,"o":"m 140 0 l 140 986 l 168 986 l 168 28 l 788 28 l 788 0 l 140 0 z "},"Ĺ":{"ha":821,"x_min":140,"x_max":788,"o":"m 140 0 l 140 986 l 168 986 l 168 28 l 788 28 l 788 0 l 140 0 m 443 1157 l 421 1174 l 510 1275 l 557 1275 l 443 1157 z "},"Ľ":{"ha":821,"x_min":140,"x_max":788,"o":"m 140 0 l 140 986 l 168 986 l 168 28 l 788 28 l 788 0 l 140 0 m 497 896 l 475 913 l 564 1014 l 611 1014 l 497 896 z "},"Ļ":{"ha":821,"x_min":140,"x_max":788,"o":"m 140 0 l 140 986 l 168 986 l 168 28 l 788 28 l 788 0 l 140 0 m 431 -176 q 449 -158 449 -176 l 449 -69 l 476 -69 l 476 -156 q 431 -204 476 -204 l 431 -176 z "},"Ŀ":{"ha":821,"x_min":140,"x_max":788,"o":"m 140 0 l 140 986 l 168 986 l 168 28 l 788 28 l 788 0 l 140 0 m 511 500 l 511 615 l 539 615 l 539 500 l 511 500 z "},"·":{"ha":228,"x_min":100,"x_max":128,"o":"m 100 347 l 100 463 l 128 463 l 128 347 l 100 347 z "},"Ł":{"ha":829,"x_min":42,"x_max":796,"o":"m 149 0 l 149 394 l 61 307 l 42 328 l 149 435 l 149 986 l 176 986 l 176 463 l 438 724 l 457 703 l 176 422 l 176 28 l 796 28 l 796 0 l 149 0 z "}}}
